<mxfile host="app.diagrams.net" modified="2024-07-01T09:08:38.829Z" agent="Mozilla/5.0 (Windows NT 10.0; Win64; x64) AppleWebKit/537.36 (KHTML, like Gecko) Chrome/126.0.0.0 Safari/537.36" etag="75ZdjtofiMwxDPjuIRQW" version="24.3.1" type="device">
  <diagram name="Seite-1" id="mG4Q4WJOBebxLqOyOW5_">
    <mxGraphModel dx="2487" dy="1468" grid="0" gridSize="10" guides="1" tooltips="1" connect="1" arrows="1" fold="1" page="0" pageScale="1" pageWidth="827" pageHeight="1169" math="0" shadow="0">
      <root>
        <mxCell id="0" />
        <mxCell id="1" parent="0" />
        <mxCell id="iBu8oiHA-jJHPnX2ctIG-11" value="" style="edgeStyle=none;curved=1;rounded=0;orthogonalLoop=1;jettySize=auto;html=1;fontSize=12;startSize=8;endSize=8;" edge="1" parent="1" source="iBu8oiHA-jJHPnX2ctIG-1" target="iBu8oiHA-jJHPnX2ctIG-3">
          <mxGeometry relative="1" as="geometry" />
        </mxCell>
        <mxCell id="iBu8oiHA-jJHPnX2ctIG-1" value="Start" style="strokeWidth=2;html=1;shape=mxgraph.flowchart.terminator;whiteSpace=wrap;" vertex="1" parent="1">
          <mxGeometry x="86" y="-182" width="146" height="65" as="geometry" />
        </mxCell>
        <mxCell id="iBu8oiHA-jJHPnX2ctIG-5" value="" style="edgeStyle=none;curved=1;rounded=0;orthogonalLoop=1;jettySize=auto;html=1;fontSize=12;startSize=8;endSize=8;" edge="1" parent="1" source="iBu8oiHA-jJHPnX2ctIG-2" target="iBu8oiHA-jJHPnX2ctIG-3">
          <mxGeometry relative="1" as="geometry" />
        </mxCell>
        <mxCell id="iBu8oiHA-jJHPnX2ctIG-2" value="Nutzeranfrage eiunlesen" style="shape=parallelogram;html=1;strokeWidth=2;perimeter=parallelogramPerimeter;whiteSpace=wrap;rounded=1;arcSize=12;size=0.23;" vertex="1" parent="1">
          <mxGeometry x="45" y="-87" width="215" height="55" as="geometry" />
        </mxCell>
        <mxCell id="iBu8oiHA-jJHPnX2ctIG-3" value="registrieren / einloggen" style="strokeWidth=2;html=1;shape=mxgraph.flowchart.decision;whiteSpace=wrap;" vertex="1" parent="1">
          <mxGeometry x="102.5" y="-11" width="100" height="100" as="geometry" />
        </mxCell>
        <mxCell id="iBu8oiHA-jJHPnX2ctIG-13" value="einloggen" style="text;html=1;align=center;verticalAlign=middle;whiteSpace=wrap;rounded=0;fontSize=16;" vertex="1" parent="1">
          <mxGeometry x="-30" y="86.8" width="60" height="30" as="geometry" />
        </mxCell>
        <mxCell id="iBu8oiHA-jJHPnX2ctIG-14" value="regestrieren" style="text;html=1;align=center;verticalAlign=middle;whiteSpace=wrap;rounded=0;fontSize=16;" vertex="1" parent="1">
          <mxGeometry x="320" y="95" width="60" height="30" as="geometry" />
        </mxCell>
        <mxCell id="iBu8oiHA-jJHPnX2ctIG-16" value="" style="endArrow=classic;html=1;rounded=0;fontSize=12;startSize=8;endSize=8;curved=0;" edge="1" parent="1">
          <mxGeometry width="50" height="50" relative="1" as="geometry">
            <mxPoint x="203" y="37" as="sourcePoint" />
            <mxPoint x="336" y="94" as="targetPoint" />
          </mxGeometry>
        </mxCell>
        <mxCell id="iBu8oiHA-jJHPnX2ctIG-17" value="" style="endArrow=classic;html=1;rounded=0;fontSize=12;startSize=8;endSize=8;curved=1;" edge="1" parent="1" source="iBu8oiHA-jJHPnX2ctIG-3" target="iBu8oiHA-jJHPnX2ctIG-13">
          <mxGeometry width="50" height="50" relative="1" as="geometry">
            <mxPoint x="37.299999999999955" y="77.00000000000004" as="sourcePoint" />
            <mxPoint x="142" y="24.8" as="targetPoint" />
          </mxGeometry>
        </mxCell>
        <mxCell id="iBu8oiHA-jJHPnX2ctIG-18" value="" style="endArrow=classic;html=1;rounded=0;fontSize=12;startSize=8;endSize=8;curved=1;exitX=0.5;exitY=1;exitDx=0;exitDy=0;" edge="1" parent="1" source="iBu8oiHA-jJHPnX2ctIG-13">
          <mxGeometry width="50" height="50" relative="1" as="geometry">
            <mxPoint x="92" y="166.8" as="sourcePoint" />
            <mxPoint y="164.8" as="targetPoint" />
          </mxGeometry>
        </mxCell>
        <mxCell id="iBu8oiHA-jJHPnX2ctIG-19" value="" style="endArrow=classic;html=1;rounded=0;fontSize=12;startSize=8;endSize=8;curved=1;exitX=0.5;exitY=1;exitDx=0;exitDy=0;" edge="1" parent="1" source="iBu8oiHA-jJHPnX2ctIG-14" target="iBu8oiHA-jJHPnX2ctIG-20">
          <mxGeometry width="50" height="50" relative="1" as="geometry">
            <mxPoint x="311" y="179" as="sourcePoint" />
            <mxPoint x="353" y="182" as="targetPoint" />
          </mxGeometry>
        </mxCell>
        <mxCell id="iBu8oiHA-jJHPnX2ctIG-20" value="Formular anzeigen&lt;div&gt;&lt;br&gt;&lt;/div&gt;" style="rounded=0;whiteSpace=wrap;html=1;" vertex="1" parent="1">
          <mxGeometry x="293" y="152" width="120" height="60" as="geometry" />
        </mxCell>
        <mxCell id="iBu8oiHA-jJHPnX2ctIG-21" value="Eingabe vollständig?" style="rhombus;whiteSpace=wrap;html=1;" vertex="1" parent="1">
          <mxGeometry x="-40" y="172.8" width="102" height="93.2" as="geometry" />
        </mxCell>
        <mxCell id="iBu8oiHA-jJHPnX2ctIG-27" value="nein&lt;div&gt;&lt;br&gt;&lt;/div&gt;" style="text;html=1;align=center;verticalAlign=middle;resizable=0;points=[];autosize=1;strokeColor=none;fillColor=none;fontSize=16;" vertex="1" parent="1">
          <mxGeometry x="-185.5" y="212" width="48" height="50" as="geometry" />
        </mxCell>
        <mxCell id="iBu8oiHA-jJHPnX2ctIG-28" value="" style="endArrow=classic;html=1;rounded=0;fontSize=12;startSize=8;endSize=8;curved=1;exitX=0.5;exitY=1;exitDx=0;exitDy=0;" edge="1" parent="1" source="iBu8oiHA-jJHPnX2ctIG-61">
          <mxGeometry width="50" height="50" relative="1" as="geometry">
            <mxPoint x="169" y="322" as="sourcePoint" />
            <mxPoint x="11" y="360" as="targetPoint" />
          </mxGeometry>
        </mxCell>
        <mxCell id="iBu8oiHA-jJHPnX2ctIG-51" style="edgeStyle=none;curved=0;rounded=0;orthogonalLoop=1;jettySize=auto;html=1;exitX=0.5;exitY=1;exitDx=0;exitDy=0;strokeColor=default;align=center;verticalAlign=middle;fontFamily=Helvetica;fontSize=12;fontColor=default;labelBackgroundColor=default;startSize=8;endArrow=classic;endSize=8;" edge="1" parent="1" source="iBu8oiHA-jJHPnX2ctIG-29">
          <mxGeometry relative="1" as="geometry">
            <mxPoint x="10" y="629" as="targetPoint" />
          </mxGeometry>
        </mxCell>
        <mxCell id="iBu8oiHA-jJHPnX2ctIG-29" value="ist vorhanden ?" style="rhombus;whiteSpace=wrap;html=1;" vertex="1" parent="1">
          <mxGeometry x="-52" y="454" width="123" height="119" as="geometry" />
        </mxCell>
        <mxCell id="iBu8oiHA-jJHPnX2ctIG-30" value="Überprüfen Nutzer bekannt." style="rounded=0;whiteSpace=wrap;html=1;" vertex="1" parent="1">
          <mxGeometry x="-49" y="369" width="120" height="60" as="geometry" />
        </mxCell>
        <mxCell id="iBu8oiHA-jJHPnX2ctIG-31" value="" style="endArrow=classic;html=1;rounded=0;fontSize=12;startSize=8;endSize=8;curved=1;exitX=0.5;exitY=1;exitDx=0;exitDy=0;" edge="1" parent="1" source="iBu8oiHA-jJHPnX2ctIG-30">
          <mxGeometry width="50" height="50" relative="1" as="geometry">
            <mxPoint x="169" y="414" as="sourcePoint" />
            <mxPoint x="11" y="451" as="targetPoint" />
          </mxGeometry>
        </mxCell>
        <mxCell id="iBu8oiHA-jJHPnX2ctIG-38" value="" style="endArrow=classic;html=1;rounded=0;fontSize=12;startSize=8;endSize=8;curved=0;" edge="1" parent="1">
          <mxGeometry width="50" height="50" relative="1" as="geometry">
            <mxPoint x="101" y="27" as="sourcePoint" />
            <mxPoint x="-43" y="217" as="targetPoint" />
            <Array as="points">
              <mxPoint x="-185" y="31" />
              <mxPoint x="-185" y="219" />
            </Array>
          </mxGeometry>
        </mxCell>
        <mxCell id="iBu8oiHA-jJHPnX2ctIG-43" style="edgeStyle=none;curved=0;rounded=0;orthogonalLoop=1;jettySize=auto;html=1;exitX=0;exitY=0.5;exitDx=0;exitDy=0;entryX=0.223;entryY=0.229;entryDx=0;entryDy=0;entryPerimeter=0;strokeColor=default;align=center;verticalAlign=middle;fontFamily=Helvetica;fontSize=12;fontColor=default;labelBackgroundColor=default;startSize=8;endArrow=classic;endSize=8;" edge="1" parent="1" source="iBu8oiHA-jJHPnX2ctIG-29" target="iBu8oiHA-jJHPnX2ctIG-3">
          <mxGeometry relative="1" as="geometry">
            <Array as="points">
              <mxPoint x="-311" y="514" />
              <mxPoint x="-311" y="16" />
            </Array>
          </mxGeometry>
        </mxCell>
        <mxCell id="iBu8oiHA-jJHPnX2ctIG-44" value="nein" style="text;html=1;align=center;verticalAlign=middle;resizable=0;points=[];autosize=1;strokeColor=none;fillColor=none;fontSize=14;fontFamily=Helvetica;fontColor=default;labelBackgroundColor=default;" vertex="1" parent="1">
          <mxGeometry x="-237" y="483" width="44" height="29" as="geometry" />
        </mxCell>
        <mxCell id="iBu8oiHA-jJHPnX2ctIG-52" style="edgeStyle=none;curved=0;rounded=0;orthogonalLoop=1;jettySize=auto;html=1;strokeColor=default;align=center;verticalAlign=middle;fontFamily=Helvetica;fontSize=12;fontColor=default;labelBackgroundColor=default;startSize=8;endArrow=classic;endSize=8;" edge="1" parent="1">
          <mxGeometry relative="1" as="geometry">
            <mxPoint x="129" y="-12" as="targetPoint" />
            <mxPoint x="-46" y="878" as="sourcePoint" />
            <Array as="points">
              <mxPoint x="-412" y="878" />
              <mxPoint x="-410" y="-8" />
            </Array>
          </mxGeometry>
        </mxCell>
        <mxCell id="iBu8oiHA-jJHPnX2ctIG-58" style="edgeStyle=none;curved=0;rounded=0;orthogonalLoop=1;jettySize=auto;html=1;exitX=0.5;exitY=1;exitDx=0;exitDy=0;entryX=0.5;entryY=0;entryDx=0;entryDy=0;strokeColor=default;align=center;verticalAlign=middle;fontFamily=Helvetica;fontSize=12;fontColor=default;labelBackgroundColor=default;startSize=8;endArrow=classic;endSize=8;" edge="1" parent="1" source="iBu8oiHA-jJHPnX2ctIG-48" target="iBu8oiHA-jJHPnX2ctIG-54">
          <mxGeometry relative="1" as="geometry" />
        </mxCell>
        <mxCell id="iBu8oiHA-jJHPnX2ctIG-48" value="" style="verticalLabelPosition=bottom;verticalAlign=top;html=1;shape=process;whiteSpace=wrap;rounded=1;size=0.14;arcSize=6;fontFamily=Helvetica;fontSize=12;fontColor=default;labelBackgroundColor=default;" vertex="1" parent="1">
          <mxGeometry x="-156" y="629" width="347" height="163" as="geometry" />
        </mxCell>
        <mxCell id="iBu8oiHA-jJHPnX2ctIG-49" style="edgeStyle=none;curved=0;rounded=0;orthogonalLoop=1;jettySize=auto;html=1;exitX=0.5;exitY=0;exitDx=0;exitDy=0;strokeColor=default;align=center;verticalAlign=middle;fontFamily=Helvetica;fontSize=12;fontColor=default;labelBackgroundColor=default;startSize=8;endArrow=classic;endSize=8;" edge="1" parent="1" source="iBu8oiHA-jJHPnX2ctIG-48" target="iBu8oiHA-jJHPnX2ctIG-48">
          <mxGeometry relative="1" as="geometry" />
        </mxCell>
        <mxCell id="iBu8oiHA-jJHPnX2ctIG-50" value="Passwortüberprüfen()&lt;div style=&quot;font-size: 17px;&quot;&gt;&lt;br style=&quot;font-size: 17px;&quot;&gt;&lt;/div&gt;&lt;div style=&quot;font-size: 17px;&quot;&gt;hash_pw(nutzereingabe)&lt;/div&gt;&lt;div style=&quot;font-size: 17px;&quot;&gt;&lt;br&gt;&lt;/div&gt;&lt;div style=&quot;font-size: 17px;&quot;&gt;&lt;span style=&quot;font-size: 15px;&quot; dir=&quot;ltr&quot; class=&quot;ui-provider a b c d e f g h i j k l m n o p q r s t u v w x y z ab ac ae af ag ah ai aj ak&quot;&gt;DatenbankNutzer == inputNutzer&amp;nbsp;&lt;/span&gt;&lt;/div&gt;&lt;div style=&quot;font-size: 17px;&quot;&gt;&lt;span style=&quot;font-size: 14px;&quot; dir=&quot;ltr&quot; class=&quot;ui-provider a b c d e f g h i j k l m n o p q r s t u v w x y z ab ac ae af ag ah ai aj ak&quot;&gt;&amp;amp;&amp;amp; DatenbankHash == NutzerHash ??&lt;/span&gt;&lt;br&gt;&lt;/div&gt;" style="text;html=1;align=center;verticalAlign=middle;resizable=0;points=[];autosize=1;strokeColor=none;fillColor=none;fontSize=17;fontFamily=Helvetica;fontColor=default;labelBackgroundColor=default;" vertex="1" parent="1">
          <mxGeometry x="-111" y="636.5" width="258" height="134" as="geometry" />
        </mxCell>
        <mxCell id="iBu8oiHA-jJHPnX2ctIG-53" value="nein" style="text;html=1;align=center;verticalAlign=middle;resizable=0;points=[];autosize=1;strokeColor=none;fillColor=none;fontSize=14;fontFamily=Helvetica;fontColor=default;labelBackgroundColor=default;" vertex="1" parent="1">
          <mxGeometry x="-292" y="842" width="44" height="29" as="geometry" />
        </mxCell>
        <mxCell id="iBu8oiHA-jJHPnX2ctIG-54" value="pw_hash == hash ?" style="rhombus;whiteSpace=wrap;html=1;" vertex="1" parent="1">
          <mxGeometry x="-43.5" y="820" width="123" height="119" as="geometry" />
        </mxCell>
        <mxCell id="iBu8oiHA-jJHPnX2ctIG-55" value="" style="verticalLabelPosition=bottom;verticalAlign=top;html=1;shape=mxgraph.basic.rect;fillColor2=none;strokeWidth=1;size=20;indent=5;fontFamily=Helvetica;fontSize=12;fontColor=default;labelBackgroundColor=default;" vertex="1" parent="1">
          <mxGeometry x="-42" y="971" width="120" height="60" as="geometry" />
        </mxCell>
        <mxCell id="iBu8oiHA-jJHPnX2ctIG-56" value="anzeigen Logginbereich" style="text;html=1;align=center;verticalAlign=middle;resizable=0;points=[];autosize=1;strokeColor=none;fillColor=none;fontSize=10;fontFamily=Helvetica;fontColor=default;labelBackgroundColor=default;" vertex="1" parent="1">
          <mxGeometry x="-43.5" y="989" width="124" height="24" as="geometry" />
        </mxCell>
        <mxCell id="iBu8oiHA-jJHPnX2ctIG-57" style="edgeStyle=none;curved=0;rounded=0;orthogonalLoop=1;jettySize=auto;html=1;exitX=0.5;exitY=1;exitDx=0;exitDy=0;entryX=0.498;entryY=-0.04;entryDx=0;entryDy=0;entryPerimeter=0;strokeColor=default;align=center;verticalAlign=middle;fontFamily=Helvetica;fontSize=12;fontColor=default;labelBackgroundColor=default;startSize=8;endArrow=classic;endSize=8;" edge="1" parent="1" source="iBu8oiHA-jJHPnX2ctIG-54" target="iBu8oiHA-jJHPnX2ctIG-55">
          <mxGeometry relative="1" as="geometry" />
        </mxCell>
        <mxCell id="iBu8oiHA-jJHPnX2ctIG-59" value="ja" style="text;html=1;align=center;verticalAlign=middle;resizable=0;points=[];autosize=1;strokeColor=none;fillColor=none;fontSize=12;fontFamily=Helvetica;fontColor=default;labelBackgroundColor=default;" vertex="1" parent="1">
          <mxGeometry x="14" y="936" width="27" height="26" as="geometry" />
        </mxCell>
        <mxCell id="iBu8oiHA-jJHPnX2ctIG-62" value="ja" style="text;html=1;align=center;verticalAlign=middle;resizable=0;points=[];autosize=1;strokeColor=none;fillColor=none;fontSize=12;fontFamily=Helvetica;fontColor=default;labelBackgroundColor=default;" vertex="1" parent="1">
          <mxGeometry x="4.5" y="583" width="27" height="26" as="geometry" />
        </mxCell>
        <mxCell id="iBu8oiHA-jJHPnX2ctIG-63" value="" style="endArrow=classic;html=1;rounded=0;fontSize=12;startSize=8;endSize=8;curved=1;exitX=0.5;exitY=1;exitDx=0;exitDy=0;" edge="1" parent="1" source="iBu8oiHA-jJHPnX2ctIG-21" target="iBu8oiHA-jJHPnX2ctIG-61">
          <mxGeometry width="50" height="50" relative="1" as="geometry">
            <mxPoint x="11" y="266" as="sourcePoint" />
            <mxPoint x="11" y="360" as="targetPoint" />
          </mxGeometry>
        </mxCell>
        <mxCell id="iBu8oiHA-jJHPnX2ctIG-61" value="ja" style="text;html=1;align=center;verticalAlign=middle;resizable=0;points=[];autosize=1;strokeColor=none;fillColor=none;fontSize=12;fontFamily=Helvetica;fontColor=default;labelBackgroundColor=default;" vertex="1" parent="1">
          <mxGeometry x="-2.5" y="287" width="27" height="26" as="geometry" />
        </mxCell>
        <mxCell id="iBu8oiHA-jJHPnX2ctIG-67" value="ja" style="text;html=1;align=center;verticalAlign=middle;resizable=0;points=[];autosize=1;strokeColor=none;fillColor=none;fontSize=12;fontFamily=Helvetica;fontColor=default;labelBackgroundColor=default;" vertex="1" parent="1">
          <mxGeometry x="1" y="123" width="27" height="26" as="geometry" />
        </mxCell>
        <mxCell id="iBu8oiHA-jJHPnX2ctIG-68" value="Stop" style="strokeWidth=2;html=1;shape=mxgraph.flowchart.terminator;whiteSpace=wrap;" vertex="1" parent="1">
          <mxGeometry x="-33.25" y="1072" width="101.5" height="45" as="geometry" />
        </mxCell>
        <mxCell id="iBu8oiHA-jJHPnX2ctIG-69" value="" style="endArrow=classic;html=1;rounded=0;strokeColor=default;align=center;verticalAlign=middle;fontFamily=Helvetica;fontSize=12;fontColor=default;labelBackgroundColor=default;startSize=8;endSize=8;curved=0;exitX=0.478;exitY=1.006;exitDx=0;exitDy=0;exitPerimeter=0;" edge="1" parent="1" source="iBu8oiHA-jJHPnX2ctIG-55">
          <mxGeometry width="50" height="50" relative="1" as="geometry">
            <mxPoint x="51.5" y="1058" as="sourcePoint" />
            <mxPoint x="15" y="1070" as="targetPoint" />
          </mxGeometry>
        </mxCell>
      </root>
    </mxGraphModel>
  </diagram>
</mxfile>
